<?xml version="1.0" standalone="no"?>
<!DOCTYPE svg PUBLIC "-//W3C//DTD SVG 20010904//EN"
 "http://www.w3.org/TR/2001/REC-SVG-20010904/DTD/svg10.dtd">
<svg version="1.0" xmlns="http://www.w3.org/2000/svg"
 width="700.000000pt" height="700.000000pt" viewBox="0 0 700.000000 700.000000"
 preserveAspectRatio="xMidYMid meet">
<metadata>
Created by potrace 1.14, written by Peter Selinger 2001-2017
</metadata>
<g transform="translate(0.000000,700.000000) scale(0.100000,-0.100000)"
fill="#000000" stroke="none">
<path d="M3435 6993 c-30 -8 -82 -46 -144 -105 -31 -29 -87 -80 -126 -113 -38
-33 -72 -62 -75 -65 -3 -3 -30 -23 -60 -45 -30 -22 -57 -42 -60 -45 -23 -25
-343 -220 -362 -220 -6 0 -19 -6 -27 -13 -23 -19 -188 -93 -309 -138 -337
-127 -697 -193 -1052 -193 -123 0 -320 12 -370 21 -57 11 -142 6 -181 -11 -46
-19 -90 -63 -115 -113 -18 -36 -19 -74 -19 -923 0 -856 3 -998 25 -1180 53
-436 149 -806 313 -1210 55 -136 223 -476 287 -580 22 -36 43 -72 46 -80 16
-33 211 -320 282 -414 230 -304 550 -636 821 -852 13 -11 29 -24 35 -30 46
-43 338 -254 448 -322 244 -153 298 -184 497 -283 119 -59 154 -72 205 -76 60
-5 63 -4 241 85 399 200 763 448 1119 761 114 100 408 405 511 530 576 696
936 1490 1059 2336 39 266 41 339 41 1286 l0 926 -30 49 c-44 70 -106 106
-187 108 -35 0 -92 -3 -128 -7 -36 -4 -87 -10 -115 -12 -67 -6 -375 -6 -450 0
-401 34 -815 154 -1165 337 -128 68 -154 83 -290 174 -118 79 -255 188 -372
296 -49 46 -103 91 -119 102 -30 19 -134 30 -174 19z"/>
</g>
</svg>
